<svg width="334" height="187" viewBox="0 0 334 187" fill="none" xmlns="http://www.w3.org/2000/svg">
<path fill-rule="evenodd" clip-rule="evenodd" d="M0 0H334V187H313V164H250V187H221V164H158V187H131V164H67V187H39V164H22V187H0V0ZM22 19H39V42H22V19ZM85 19H68V42H85V19ZM114 19H131V42H114V19ZM177 19H160V42H177V19ZM206 19H223V42H206V19ZM269 19H252V42H269V19ZM298 19H315V42H298V19ZM39 54H22V77H39V54ZM68 54H85V77H68V54ZM131 54H114V77H131V54ZM160 54H177V77H160V54ZM223 54H206V77H223V54ZM252 54H269V77H252V54ZM315 54H298V77H315V54ZM22 89H39V112H22V89ZM85 89H68V112H85V89ZM114 89H131V112H114V89ZM177 89H160V112H177V89ZM206 89H223V112H206V89ZM269 89H252V112H269V89ZM298 89H315V112H298V89ZM39 124H22V147H39V124ZM68 124H85V147H68V124ZM131 124H114V147H131V124ZM160 124H177V147H160V124ZM223 124H206V147H223V124ZM252 124H269V147H252V124ZM315 124H298V147H315V124Z" fill="black"/>
</svg>
