<?xml version="1.0" encoding="UTF-8"?>
<svg id="Layer_2" data-name="Layer 2" xmlns="http://www.w3.org/2000/svg" viewBox="0 0 69.87 69.87">
  <defs>
    <style>
      .cls-1 {
        fill-rule: evenodd;
      }
    </style>
  </defs>
  <g id="Layer_1-2" data-name="Layer 1">
    <path class="cls-1" d="m0,21.45v26.97c0,11.83,9.62,21.45,21.45,21.45h26.97c11.83,0,21.45-9.62,21.45-21.45v-26.97c0-11.83-9.62-21.45-21.45-21.45h-26.97C9.62,0,0,9.62,0,21.45Zm6.95.96c0-8.52,6.93-15.45,15.45-15.45h25.06c8.52,0,15.45,6.93,15.45,15.45v25.06c0,8.52-6.93,15.45-15.45,15.45h-25.06c-8.52,0-15.45-6.93-15.45-15.45,0,0,0-25.06,0-25.06Zm18.4,12.53c0,5.28,4.3,9.58,9.58,9.58s9.58-4.3,9.58-9.58-4.3-9.58-9.58-9.58-9.58,4.3-9.58,9.58Zm-6.33,0c0-8.78,7.14-15.91,15.91-15.91s15.91,7.14,15.91,15.91-7.14,15.91-15.91,15.91-15.91-7.14-15.91-15.91ZM52.86,12.67c2.25,0,4.08,1.83,4.08,4.08s-1.82,4.08-4.08,4.08-4.08-1.83-4.08-4.08,1.83-4.08,4.08-4.08Z"/>
  </g>
</svg>